<svg width="18" height="18" viewBox="0 0 18 18" fill="none" xmlns="http://www.w3.org/2000/svg">
    <path d="M16.1844 11.8825C16.187 11.7758 16.1947 11.6076 16.2186 11.4016C16.2475 11.1526 16.2864 10.9705 16.2975 10.9174C16.3916 10.463 16.4455 9.78259 16.4584 9.43713C16.4739 9.02679 16.4926 8.41128 16.2851 7.65625C16.1132 7.031 15.6803 6.25955 15.5181 6.09337C15.4622 6.03897 15.42 5.9727 15.3948 5.89974C15.3726 5.828 15.3652 5.75268 15.3732 5.67815C15.3783 5.61129 15.3941 5.54561 15.42 5.4835C15.4989 5.29807 15.6532 5.19703 15.7634 5.12727C15.8686 5.06085 15.8865 5.07033 15.9861 5.01366C16.1432 4.92091 16.2785 4.79691 16.3832 4.64974C16.5875 4.38045 16.6438 4.10603 16.6743 3.94856C16.8444 3.06505 16.4311 2.27207 16.4311 2.27207C15.923 1.29751 14.9585 0.985904 14.8007 0.938458C13.6474 0.583257 12.6795 1.11798 12.4868 1.23211C12.2351 1.37906 11.7337 1.68194 11.4597 2.30515C11.3784 2.48929 11.1318 3.07454 11.3774 3.75237C11.4365 3.91548 11.7171 4.61947 12.4639 4.8608C12.9877 5.03007 13.7137 4.96339 13.9953 4.56382C14.0453 4.49304 14.1944 4.28171 14.1473 4.04884C14.11 3.86316 13.9735 3.79417 14.0043 3.64722C14.0282 3.53156 14.1439 3.4241 14.2817 3.40486C14.4615 3.37922 14.5849 3.51822 14.6093 3.54746C14.6285 3.57028 14.7103 3.67082 14.7008 3.89471C14.684 4.28915 14.4229 4.5751 14.359 4.64281C14.08 4.93415 13.7395 5.03648 13.5877 5.0788C12.4549 5.39656 9.9816 5.65764 8.37206 4.81156C8.28306 4.76618 8.19692 4.71565 8.1141 4.66025C7.6705 4.34454 7.18876 3.47616 6.8861 3.02632C6.62683 2.64163 5.97707 1.70169 4.88765 1.39676C4.76645 1.36286 4.64289 1.33757 4.51794 1.3211C4.41445 1.25144 4.30611 1.18889 4.19372 1.13388C3.92028 0.992356 3.62097 0.90469 3.31283 0.875881C3.13594 0.861024 2.95785 0.867051 2.78245 0.893833C2.77598 1.07328 2.83993 1.24837 2.96126 1.38342C2.6597 1.33233 2.35208 1.32481 2.04828 1.36111C2.06464 1.4457 2.09885 1.52604 2.14873 1.59705C2.21235 1.68693 2.29891 1.75906 2.39985 1.80633C2.40939 1.93626 2.39857 2.06684 2.36777 2.19359C2.32201 2.36008 2.26509 2.52345 2.19738 2.68266C2.16267 2.76601 2.13321 2.8291 2.13953 2.91861C2.14584 3.00812 2.18449 3.04325 2.19422 3.12865C2.20763 3.24303 2.15583 3.33511 2.11533 3.40461C1.95546 3.68954 1.63202 3.83547 1.38038 3.94908C1.19158 4.03422 1.09718 4.07731 1.00383 4.08603C0.924942 4.09372 0.858415 4.08603 0.829227 4.12937C0.800039 4.17271 0.831857 4.23196 0.88734 4.36019C1.01882 4.66435 0.986473 4.67051 1.05169 4.74104C1.13762 4.82981 1.25039 4.88947 1.37354 4.91133C1.51764 4.93287 1.56865 4.87517 1.72274 4.91466C1.77796 4.92851 1.82214 4.94877 1.88367 4.93467C1.931 4.92364 1.96256 4.8985 2.00358 4.91133C2.02694 4.91969 2.04651 4.93587 2.0588 4.95698C1.93448 5.04712 1.83271 5.16356 1.76114 5.29756C1.66568 5.47709 1.65753 5.63378 1.64807 5.81844C1.63976 5.94659 1.65837 6.07506 1.70276 6.19595C1.72406 6.25186 1.75877 6.3406 1.81241 6.34265C1.86158 6.3447 1.89997 6.27238 1.90129 6.2693C1.92375 6.2186 1.92683 6.16173 1.90997 6.10901C1.88893 6.0254 1.87368 5.8923 1.89629 5.66995C1.9139 5.69873 1.93857 5.72279 1.96808 5.73996C2.0119 5.76352 2.06239 5.77252 2.11192 5.76561C2.16451 5.76099 2.18712 5.74586 2.24707 5.7256C2.30734 5.70781 2.36886 5.69435 2.43114 5.68533C2.67621 5.64199 2.79928 5.62019 2.85055 5.63994C2.98045 5.68892 3.04119 5.81946 3.0596 5.85793C3.09311 5.93373 3.10805 6.01609 3.10325 6.0985C3.10194 6.24186 3.10562 6.4378 3.12376 6.70836C3.15695 7.49963 3.34128 8.2779 3.66729 9.0032C3.85819 9.42585 4.23579 10.2381 5.07304 10.9559C5.21135 11.0744 5.33336 11.1657 5.41987 11.2275C5.46563 11.5504 5.6092 12.5214 5.83087 13.349C5.88635 13.5559 6.00968 13.9901 6.1664 14.4843C6.21636 14.6423 6.25922 14.7734 6.28972 14.8652C6.23448 14.8575 6.17818 14.8676 6.12932 14.8939C6.00836 14.9606 5.99785 15.1009 5.99785 15.1121C5.94227 15.1206 5.89182 15.1487 5.85611 15.1911C5.82509 15.2306 5.80352 15.2937 5.82298 15.3107C5.83534 15.3219 5.85664 15.3094 5.9066 15.3024C5.94289 15.2976 5.9797 15.2976 6.01599 15.3024C5.97436 15.31 5.93696 15.332 5.91081 15.3645C5.88057 15.4045 5.86926 15.4625 5.88635 15.4735C5.90345 15.4845 5.92369 15.453 5.98023 15.4409C6.0049 15.435 6.03044 15.4334 6.0557 15.4361C6.08471 15.4747 6.12028 15.5083 6.16088 15.5353C6.24385 15.5888 6.34242 15.6146 6.44171 15.6087C6.45145 15.7022 6.44791 15.7966 6.43119 15.8892C6.40517 16.0329 6.34826 16.1696 6.26422 16.2903C6.22846 16.2834 5.98996 16.2419 5.80484 16.3968C5.74193 16.45 5.69367 16.5177 5.66442 16.5937C5.62972 16.6103 5.59885 16.6336 5.5737 16.6622C5.52532 16.7179 5.50454 16.7904 5.52111 16.8025C5.53084 16.8092 5.54741 16.7892 5.5737 16.7958C5.58736 16.8003 5.59892 16.8094 5.60631 16.8215C5.58778 16.8515 5.58044 16.8868 5.58553 16.9215C5.58685 16.9282 5.59605 16.9813 5.6234 16.9866C5.64075 16.9902 5.65259 16.9705 5.69282 16.942C5.7124 16.9283 5.73316 16.9163 5.75488 16.9061C5.76434 16.9146 5.77407 16.923 5.78433 16.9318C5.80589 16.9497 5.82719 16.9664 5.84796 16.983C5.83886 16.9886 5.83113 16.996 5.82535 17.0048C5.80063 17.0433 5.81825 17.1044 5.84402 17.1118C5.86295 17.1172 5.87426 17.0908 5.92448 17.0746C5.93947 17.0698 5.95501 17.0668 5.97076 17.0656C6.00807 17.0901 6.04759 17.1112 6.08883 17.1287C6.15197 17.1539 6.21816 17.1712 6.28578 17.18C6.42541 17.1946 6.54637 17.1269 6.72228 17.0297C6.92765 16.9161 7.04388 16.852 7.10462 16.7168C7.1388 16.6399 7.11987 16.6217 7.17088 16.4837C7.2219 16.3457 7.25713 16.3244 7.30104 16.2198C7.38861 16.0103 7.3092 15.9444 7.38414 15.7518C7.43357 15.6256 7.48511 15.6097 7.58504 15.4668C7.70626 15.294 7.75201 15.1442 7.81801 14.9283C7.97578 14.411 7.95107 13.8437 7.94107 13.677C8.04207 13.3846 8.08925 13.0772 8.08044 12.7688C8.27538 12.5139 8.42637 12.2297 8.52746 11.9274C8.66683 11.9294 8.88166 11.9307 9.14383 11.9228C9.99895 11.8971 10.7925 11.8671 11.6553 11.5314C11.8784 11.4443 12.0947 11.3414 12.3024 11.2237C12.355 11.3075 12.4392 11.4347 12.547 11.5863C12.6687 11.7574 12.7771 11.894 12.9887 12.1605L13.4339 12.7176C13.4656 12.8213 13.5151 12.9191 13.5801 13.0068C13.8349 13.3495 14.2475 13.4141 14.3561 13.4277C14.4921 13.4957 14.6205 13.5774 14.739 13.6716C14.9442 13.8351 15.1178 14.0331 15.2515 14.2563V14.6854C15.2394 14.7064 15.2273 14.7298 15.2154 14.7554C15.2036 14.7811 15.1944 14.8049 15.1862 14.8272C15.1141 14.8179 15.0412 14.8163 14.9688 14.8223C14.8578 14.8316 14.7668 14.8393 14.6864 14.9024C14.6339 14.9447 14.5952 15.001 14.5751 15.0644C14.5588 15.0901 14.5375 15.1242 14.5136 15.1645C14.4771 15.2258 14.4668 15.2465 14.476 15.2599C14.4891 15.2788 14.5367 15.2706 14.5409 15.2699C14.5549 15.2672 14.5683 15.2621 14.5804 15.2547C14.5791 15.2809 14.5869 15.3067 14.6025 15.3281C14.6109 15.3393 14.6213 15.3489 14.6332 15.3566C14.6285 15.3627 14.6256 15.3699 14.6247 15.3776C14.6238 15.3852 14.6251 15.3929 14.6283 15.3999C14.6341 15.4097 14.6435 15.4171 14.6545 15.4205C14.6656 15.4239 14.6777 15.4232 14.6882 15.4184C14.7103 15.4546 14.7397 15.4861 14.7748 15.5108C14.8099 15.5355 14.8497 15.5529 14.892 15.562C15.1431 15.621 15.4329 15.5363 15.4329 15.5363C15.5146 15.5126 15.5939 15.4813 15.6695 15.443L15.649 16.0523L15.4692 16.2832C15.4529 16.277 15.2543 16.2062 15.0808 16.3268C14.9943 16.3885 14.9354 16.4803 14.9164 16.5832C14.8896 16.5953 14.8657 16.6128 14.8462 16.6345C14.8362 16.6461 14.7936 16.6958 14.8094 16.7222C14.8252 16.7486 14.8741 16.7371 14.8786 16.7363C14.8979 16.7332 14.9161 16.7252 14.9312 16.713C14.9309 16.7363 14.9365 16.7592 14.9475 16.7799C14.9521 16.7891 14.9579 16.7977 14.9646 16.8056C14.9591 16.8214 14.9564 16.8381 14.9567 16.8548C14.9567 16.8733 14.9567 16.9 14.973 16.91C14.9893 16.92 15.0256 16.91 15.0569 16.8782C15.0773 16.9047 15.101 16.9285 15.1276 16.9492C15.1654 16.9746 15.2058 16.9962 15.248 17.0138C15.2932 17.0378 15.3367 17.0646 15.3782 17.0941C15.4834 17.1592 15.6222 17.1454 15.709 17.1364C15.7319 17.1338 16.1011 17.091 16.2875 16.8092C16.3196 16.7609 16.3048 16.7681 16.419 16.4906C16.4915 16.3162 16.5399 16.2101 16.5652 16.1524C16.7098 15.8205 16.7027 15.6561 16.8481 15.2353C16.9956 14.8088 17.1124 14.6608 17.1679 14.2912C17.1924 14.1545 17.1845 14.0142 17.145 13.8809C17.1032 13.7483 17.0382 13.6631 16.9441 13.5426C16.7724 13.322 16.6222 13.1348 16.5013 12.9858C16.563 12.8924 16.5992 12.7851 16.6065 12.6742C16.6183 12.469 16.5197 12.3105 16.4605 12.2157C16.401 12.1239 16.3333 12.0374 16.2583 11.9571C16.2278 11.9256 16.2023 11.9002 16.1844 11.8825Z" stroke="#373757"/>
</svg>
