<svg width="15" height="15" viewBox="0 0 15 15" fill="none" xmlns="http://www.w3.org/2000/svg">
    <path d="M8.09653 0.497053C7.96997 0.609553 6.9856 2.56307 6.9856 2.56307L6.25317 5.51737L9.10317 5.25604C9.10317 5.25604 11.4739 0.847443 11.5219 0.74549C11.6075 0.560334 11.6532 0.484162 11.3262 0.484162C10.9993 0.48299 8.21489 0.391584 8.09653 0.497053Z" fill="#176CC7"/>
    <path d="M9.57177 5.07375C9.42997 4.99758 5.25341 4.93195 5.15497 5.07375C5.06591 5.20265 5.0788 5.79211 5.12216 5.86828C5.16552 5.94445 6.56943 6.59718 6.56943 6.59718L6.56825 6.83507C6.56825 6.83507 6.6456 7.0214 7.42841 7.0214C8.21122 7.0214 8.29208 6.8632 8.29208 6.8632L8.29911 6.62297C8.29911 6.62297 9.52841 6.0089 9.59286 5.955C9.65849 5.89992 9.71357 5.14992 9.57177 5.07375ZM8.28505 6.04992C8.28505 6.04992 8.28154 5.88586 8.20068 5.84484C8.11982 5.80383 6.81786 5.81086 6.70771 5.81672C6.59755 5.82258 6.59755 6.01945 6.59755 6.01945L5.70693 5.58586V5.49914L9.02333 5.52258L9.02919 5.62101L8.28505 6.04992Z" fill="#FCC417"/>
    <path d="M6.94453 5.99609C6.83437 5.99609 6.77109 6.11094 6.77109 6.30899C6.77109 6.49414 6.83437 6.65 6.97382 6.63828C7.08867 6.62891 7.12851 6.45313 7.11796 6.29727C7.10742 6.11211 7.08398 5.99609 6.94453 5.99609Z" fill="#FDFFFF"/>
    <path d="M3.40918 10.4036C3.40918 13.2114 5.94746 14.4618 7.63496 14.4021C9.4959 14.3353 11.7248 12.8845 11.59 10.2056C11.4623 7.66729 9.32715 6.46377 7.47793 6.47666C5.32871 6.4919 3.40918 7.95088 3.40918 10.4036Z" fill="#FCC417"/>
    <path d="M7.56215 14.1408C7.53286 14.1408 7.50239 14.1408 7.47309 14.1397C6.59418 14.1104 5.72583 13.74 5.09067 13.1248C4.41098 12.4662 4.03832 11.5756 4.04301 10.6182C4.05356 8.28027 6.09731 7.19629 7.48364 7.19629H7.49536C9.37387 7.20449 10.9161 8.66465 10.9594 10.6439C10.9782 11.5252 10.6172 12.4498 9.90942 13.1459C9.24848 13.7939 8.37192 14.1408 7.56215 14.1408ZM7.48129 7.58535C6.23793 7.58535 4.39926 8.60254 4.39458 10.6182C4.39106 12.1252 5.55825 13.6744 7.50239 13.74C8.24301 13.7635 9.0059 13.4799 9.62231 12.874C10.2622 12.2447 10.6219 11.4338 10.609 10.6486C10.5809 8.9459 9.18872 7.59121 7.49887 7.58418C7.49418 7.58418 7.48481 7.58535 7.48129 7.58535Z" fill="#FA912C"/>
    <path d="M6.77576 7.10254C6.6949 6.99121 5.77849 7.01231 4.91248 7.8584C4.07693 8.6752 3.98669 9.44512 4.14724 9.48965C4.32888 9.54004 4.55037 8.72442 5.3156 8.03887C6.01873 7.41074 6.93748 7.32403 6.77576 7.10254Z" fill="#FEFFFA"/>
    <path d="M10.3206 10.1345C10.0382 10.1744 10.3312 11.0205 9.6761 11.9673C9.10774 12.7888 8.46321 13.0865 8.53821 13.2669C8.63899 13.5083 9.67141 12.9072 10.1495 11.9275C10.5831 11.0404 10.5316 10.104 10.3206 10.1345Z" fill="#FEFFFA"/>
    <path d="M6.54492 9.02575C6.48398 9.11599 6.53906 9.907 6.57539 9.94216C6.6457 10.0125 7.18007 9.76052 7.18007 9.76052L7.16015 11.8758C7.16015 11.8758 6.76757 11.8711 6.72656 11.8863C6.6457 11.9168 6.65625 12.7324 6.71601 12.7722C6.77578 12.8121 8.37773 12.8332 8.43867 12.7523C8.4996 12.6715 8.48437 11.9578 8.45625 11.925C8.40585 11.864 8.02265 11.8886 8.02265 11.8886C8.02265 11.8886 8.05546 8.7738 8.04492 8.67419C8.03437 8.57458 7.92421 8.51247 7.79296 8.54294C7.66171 8.57341 6.58359 8.96716 6.54492 9.02575Z" fill="#C56D1A"/>
    <path d="M2.98946 0.436169C2.91563 0.504138 5.73868 5.53148 5.73868 5.53148C5.73868 5.53148 6.21212 5.59242 7.26915 5.60179C8.32618 5.61117 8.85001 5.54086 8.85001 5.54086C8.85001 5.54086 6.65508 0.48656 6.52383 0.436169C6.45938 0.410388 5.58985 0.401013 4.74024 0.391638C3.88946 0.381091 3.05977 0.370544 2.98946 0.436169Z" fill="#2E9DF4"/>
</svg>
