<svg width="10" height="10" viewBox="0 0 10 10" fill="none" xmlns="http://www.w3.org/2000/svg">
    <path d="M9.35543 8.74589L5.24274 1.10663C5.22937 1.08178 5.20951 1.06101 5.18529 1.04653C5.16106 1.03206 5.13336 1.02441 5.10514 1.02441C5.07692 1.02441 5.04922 1.03206 5.025 1.04653C5.00077 1.06101 4.98091 1.08178 4.96754 1.10663L0.854066 8.74589C0.841257 8.7697 0.834846 8.79643 0.835459 8.82346C0.836072 8.85049 0.843689 8.8769 0.857565 8.9001C0.871441 8.92331 0.891101 8.94251 0.914623 8.95585C0.938145 8.96918 0.964724 8.97618 0.991761 8.97616H9.21871C9.24567 8.97601 9.27213 8.96889 9.29551 8.95549C9.3189 8.94208 9.33842 8.92286 9.35219 8.89968C9.36595 8.87651 9.37348 8.85016 9.37405 8.82321C9.37462 8.79626 9.3682 8.76963 9.35543 8.74589ZM5.49567 8.0371H4.71442V7.25585H5.49567V8.0371ZM5.41754 6.78866H4.79254L4.67536 3.66366H5.53473L5.41754 6.78866Z" fill="#75758B"/>
</svg>
