<svg width="72" height="72" viewBox="0 0 72 72" fill="none" xmlns="http://www.w3.org/2000/svg">
    <g filter="url(#filter0_d_392_1517)">
        <mask id="path-1-inside-1_392_1517" fill="white">
            <path fill-rule="evenodd" clip-rule="evenodd" d="M40.5708 24.0566L47.342 17.2854L42.8279 12.7712L36.0566 19.5425L29.2854 12.7712L24.7712 17.2854L31.5425 24.0566L24.7712 30.8279L29.2854 35.342L36.0566 28.5708L42.8279 35.342L47.342 30.8279L40.5708 24.0566Z"/>
        </mask>
        <path d="M47.342 17.2854L55.8273 25.7707L64.3126 17.2854L55.8273 8.80011L47.342 17.2854ZM40.5708 24.0566L32.0855 15.5714L23.6002 24.0566L32.0855 32.5419L40.5708 24.0566ZM42.8279 12.7712L51.3132 4.28596L42.8279 -4.19932L34.3426 4.28596L42.8279 12.7712ZM36.0566 19.5425L27.5714 28.0278L36.0566 36.513L44.5419 28.0278L36.0566 19.5425ZM29.2854 12.7712L37.7707 4.28596L29.2854 -4.19932L20.8001 4.28596L29.2854 12.7712ZM24.7712 17.2854L16.286 8.80011L7.80068 17.2854L16.286 25.7707L24.7712 17.2854ZM31.5425 24.0566L40.0278 32.5419L48.513 24.0566L40.0278 15.5714L31.5425 24.0566ZM24.7712 30.8279L16.286 22.3426L7.80068 30.8279L16.286 39.3132L24.7712 30.8279ZM29.2854 35.342L20.8001 43.8273L29.2854 52.3126L37.7707 43.8273L29.2854 35.342ZM36.0566 28.5708L44.5419 20.0855L36.0566 11.6002L27.5714 20.0855L36.0566 28.5708ZM42.8279 35.342L34.3426 43.8273L42.8279 52.3126L51.3132 43.8273L42.8279 35.342ZM47.342 30.8279L55.8273 39.3132L64.3126 30.8279L55.8273 22.3426L47.342 30.8279ZM38.8568 8.80011L32.0855 15.5714L49.0561 32.5419L55.8273 25.7707L38.8568 8.80011ZM34.3426 21.2565L38.8568 25.7707L55.8273 8.80011L51.3132 4.28596L34.3426 21.2565ZM44.5419 28.0278L51.3132 21.2565L34.3426 4.28596L27.5714 11.0572L44.5419 28.0278ZM20.8001 21.2565L27.5714 28.0278L44.5419 11.0572L37.7707 4.28596L20.8001 21.2565ZM33.2565 25.7707L37.7707 21.2565L20.8001 4.28596L16.286 8.80011L33.2565 25.7707ZM40.0278 15.5714L33.2565 8.80011L16.286 25.7707L23.0572 32.5419L40.0278 15.5714ZM33.2565 39.3132L40.0278 32.5419L23.0572 15.5714L16.286 22.3426L33.2565 39.3132ZM37.7707 26.8567L33.2565 22.3426L16.286 39.3132L20.8001 43.8273L37.7707 26.8567ZM27.5714 20.0855L20.8001 26.8567L37.7707 43.8273L44.5419 37.0561L27.5714 20.0855ZM51.3132 26.8567L44.5419 20.0855L27.5714 37.0561L34.3426 43.8273L51.3132 26.8567ZM38.8568 22.3426L34.3426 26.8567L51.3132 43.8273L55.8273 39.3132L38.8568 22.3426ZM32.0855 32.5419L38.8568 39.3132L55.8273 22.3426L49.0561 15.5714L32.0855 32.5419Z" fill="white" mask="url(#path-1-inside-1_392_1517)"/>
    </g>
    <defs>
        <filter id="filter0_d_392_1517" x="0.77124" y="0.77124" width="70.5708" height="70.5708" filterUnits="userSpaceOnUse" color-interpolation-filters="sRGB">
            <feFlood flood-opacity="0" result="BackgroundImageFix"/>
            <feColorMatrix in="SourceAlpha" type="matrix" values="0 0 0 0 0 0 0 0 0 0 0 0 0 0 0 0 0 0 127 0" result="hardAlpha"/>
            <feOffset dy="12"/>
            <feGaussianBlur stdDeviation="12"/>
            <feComposite in2="hardAlpha" operator="out"/>
            <feColorMatrix type="matrix" values="0 0 0 0 1 0 0 0 0 1 0 0 0 0 1 0 0 0 0.32 0"/>
            <feBlend mode="normal" in2="BackgroundImageFix" result="effect1_dropShadow_392_1517"/>
            <feBlend mode="normal" in="SourceGraphic" in2="effect1_dropShadow_392_1517" result="shape"/>
        </filter>
    </defs>
</svg>
