<svg width="10" height="10" viewBox="0 0 10 10" fill="none" xmlns="http://www.w3.org/2000/svg">
    <path d="M5 0.9375C2.75996 0.9375 0.9375 2.75996 0.9375 5C0.9375 7.24004 2.75996 9.0625 5 9.0625C7.24004 9.0625 9.0625 7.24004 9.0625 5C9.0625 2.75996 7.24004 0.9375 5 0.9375ZM7.11426 3.63848L4.48926 6.76348C4.46046 6.79777 4.42463 6.82548 4.3842 6.84472C4.34376 6.86396 4.29966 6.87429 4.25488 6.875H4.24961C4.20581 6.87498 4.1625 6.86576 4.12249 6.84793C4.08249 6.83009 4.04667 6.80405 4.01738 6.77148L2.89238 5.52148C2.86381 5.49118 2.84159 5.45547 2.82701 5.41646C2.81244 5.37744 2.80581 5.33591 2.80752 5.29429C2.80923 5.25268 2.81924 5.21183 2.83696 5.17414C2.85468 5.13645 2.87976 5.10268 2.91072 5.07482C2.94168 5.04696 2.97789 5.02557 3.01723 5.01191C3.05658 4.99824 3.09825 4.99258 3.13982 4.99525C3.18138 4.99793 3.22199 5.00888 3.25926 5.02747C3.29653 5.04606 3.3297 5.07192 3.35684 5.10352L4.24141 6.08633L6.63574 3.23652C6.68945 3.17443 6.76544 3.13596 6.84727 3.12944C6.92911 3.12292 7.01023 3.14887 7.07309 3.20167C7.13596 3.25448 7.17552 3.3299 7.18322 3.41164C7.19092 3.49337 7.16615 3.57486 7.11426 3.63848Z" fill="#2BA866"/>
</svg>
