<svg width="10" height="10" viewBox="0 0 10 10" fill="none" xmlns="http://www.w3.org/2000/svg">
    <path d="M6.06071 5.00032L9.02946 2.03157C9.17035 1.89093 9.24961 1.70007 9.24978 1.50099C9.24996 1.30191 9.17104 1.11091 9.03039 0.970012C8.88975 0.829116 8.69889 0.749862 8.49981 0.749686C8.30072 0.749511 8.10973 0.828427 7.96883 0.969074L5.00008 3.93782L2.03133 0.969074C1.89043 0.828178 1.69934 0.749023 1.50008 0.749023C1.30082 0.749023 1.10973 0.828178 0.96883 0.969074C0.827934 1.10997 0.748779 1.30107 0.748779 1.50032C0.748779 1.69958 0.827934 1.89068 0.96883 2.03157L3.93758 5.00032L0.96883 7.96907C0.827934 8.10997 0.748779 8.30107 0.748779 8.50032C0.748779 8.69958 0.827934 8.89068 0.96883 9.03157C1.10973 9.17247 1.30082 9.25163 1.50008 9.25163C1.69934 9.25163 1.89043 9.17247 2.03133 9.03157L5.00008 6.06282L7.96883 9.03157C8.10973 9.17247 8.30082 9.25163 8.50008 9.25163C8.69934 9.25163 8.89043 9.17247 9.03133 9.03157C9.17223 8.89068 9.25138 8.69958 9.25138 8.50032C9.25138 8.30107 9.17223 8.10997 9.03133 7.96907L6.06071 5.00032Z" fill="white"/>
</svg>
