<svg width="238" height="110" viewBox="0 0 238 110" fill="none" xmlns="http://www.w3.org/2000/svg">
    <g clip-path="url(#clip0_592_7179)">
        <path opacity="0.3" fill-rule="evenodd" clip-rule="evenodd" d="M353 -67.9999L375.25 -67.9999L375.25 -45.75L353 -45.75L353 -67.9999ZM353 -23.5L353 -45.75L330.75 -45.75L330.75 -67.9999L308.5 -68L308.5 -45.75L286.25 -45.75L286.25 -68L264 -68L264 -45.75L241.75 -45.75L241.75 -68L219.5 -68L219.5 -45.75L197.25 -45.75L197.25 -68L175 -68L175 -45.75L152.75 -45.75L152.75 -68L130.5 -68L130.5 -45.75L108.25 -45.75L108.25 -68L86 -68L86 -45.75L63.75 -45.75L63.75 -68L41.5 -68L41.5 -45.75L19.25 -45.75L19.25 -68L-2.99998 -68L-2.99999 -45.75L-25.25 -45.75L-25.25 -68L-47.5 -68L-47.5 -45.75L-69.75 -45.75L-69.75 -68L-92 -68L-92 -45.75L-114.25 -45.75L-114.25 -68L-136.5 -68L-136.5 -45.75L-158.75 -45.75L-158.75 -68L-181 -68L-181 -45.75L-158.75 -45.75L-158.75 -23.5L-181 -23.5L-181 -1.25003L-158.75 -1.25003L-158.75 21L-181 21L-181 43.2499L-158.75 43.2499L-158.75 65.4999L-181 65.4999L-181 87.7499L-158.75 87.7499L-158.75 110L-136.5 110L-136.5 87.7499L-114.25 87.7499L-114.25 110L-92 110L-92 87.7499L-69.75 87.7499L-69.75 110L-47.5 110L-47.5 87.7499L-25.25 87.7499L-25.25 110L-3 110L-3 87.7499L19.25 87.7499L19.25 110L41.5 110L41.5 87.7499L63.7499 87.75L63.7499 110L85.9999 110L86 87.7499L108.25 87.7499L108.25 110L130.5 110L130.5 87.7499L152.75 87.7499L152.75 110L175 110L175 87.7499L197.25 87.7499L197.25 110L219.5 110L219.5 87.7499L241.75 87.7499L241.75 110L264 110L264 87.7499L286.25 87.75L286.25 110L308.5 110L308.5 87.75L330.75 87.75L330.75 110L353 110L353 87.75L375.25 87.75L375.25 110L397.5 110L397.5 87.75L419.75 87.75L419.75 110L442 110L442 87.75L464.25 87.75L464.25 110L486.5 110L486.5 87.75L508.75 87.75L508.75 110L531 110L531 87.75L553.25 87.75L553.25 110L575.5 110L575.5 87.75L597.75 87.75L597.75 110L620 110L620 87.75L597.75 87.75L597.75 65.5L620 65.5L620 43.25L597.75 43.25L597.75 21.0001L620 21.0001L620 -1.24993L597.75 -1.24993L597.75 -23.5L620 -23.5L620 -45.7499L597.75 -45.7499L597.75 -67.9999L575.5 -67.9999L575.5 -45.7499L553.25 -45.7499L553.25 -67.9999L531 -67.9999L531 -45.7499L508.75 -45.7499L508.75 -67.9999L486.5 -67.9999L486.5 -45.75L464.25 -45.75L464.25 -67.9999L442 -67.9999L442 -45.75L419.75 -45.75L419.75 -67.9999L397.5 -67.9999L397.5 -45.75L375.25 -45.75L375.25 -23.5L353 -23.5ZM353 -1.24999L353 -23.5L330.75 -23.5L330.75 -45.75L308.5 -45.75L308.5 -23.5L286.25 -23.5L286.25 -45.75L264 -45.75L264 -23.5L241.75 -23.5L241.75 -45.75L219.5 -45.75L219.5 -23.5L197.25 -23.5L197.25 -45.75L175 -45.75L175 -23.5L152.75 -23.5L152.75 -45.75L130.5 -45.75L130.5 -23.5L108.25 -23.5L108.25 -45.75L86 -45.75L86 -23.5L63.75 -23.5L63.75 -45.75L41.5 -45.75L41.5 -23.5L19.25 -23.5L19.25 -45.75L-2.99999 -45.75L-2.99999 -23.5L-25.25 -23.5L-25.25 -45.75L-47.5 -45.75L-47.5 -23.5L-69.75 -23.5L-69.75 -45.75L-92 -45.75L-92 -23.5L-114.25 -23.5L-114.25 -45.75L-136.5 -45.75L-136.5 -23.5L-158.75 -23.5L-158.75 -1.25003L-136.5 -1.25003L-136.5 21L-158.75 21L-158.75 43.2499L-136.5 43.2499L-136.5 65.4999L-158.75 65.4999L-158.75 87.7499L-136.5 87.7499L-136.5 65.4999L-114.25 65.4999L-114.25 87.7499L-92 87.7499L-92 65.4999L-69.75 65.4999L-69.75 87.7499L-47.5 87.7499L-47.5 65.4999L-25.25 65.4999L-25.25 87.7499L-3 87.7499L-3 65.4999L19.25 65.4999L19.25 87.7499L41.5 87.7499L41.5 65.4999L63.7499 65.5L63.7499 87.75L86 87.7499L86 65.4999L108.25 65.5L108.25 87.7499L130.5 87.7499L130.5 65.5L152.75 65.5L152.75 87.7499L175 87.7499L175 65.5L197.25 65.5L197.25 87.7499L219.5 87.7499L219.5 65.5L241.75 65.5L241.75 87.7499L264 87.7499L264 65.5L286.25 65.5L286.25 87.75L308.5 87.75L308.5 65.5L330.75 65.5L330.75 87.75L353 87.75L353 65.5L375.25 65.5L375.25 87.75L397.5 87.75L397.5 65.5L419.75 65.5L419.75 87.75L442 87.75L442 65.5L464.25 65.5L464.25 87.75L486.5 87.75L486.5 65.5L508.75 65.5L508.75 87.75L531 87.75L531 65.5L553.25 65.5L553.25 87.75L575.5 87.75L575.5 65.5L597.75 65.5L597.75 43.25L575.5 43.25L575.5 21L597.75 21.0001L597.75 -1.24993L575.5 -1.24994L575.5 -23.5L597.75 -23.5L597.75 -45.7499L575.5 -45.7499L575.5 -23.5L553.25 -23.5L553.25 -45.7499L531 -45.7499L531 -23.5L508.75 -23.5L508.75 -45.7499L486.5 -45.75L486.5 -23.5L464.25 -23.5L464.25 -45.75L442 -45.75L442 -23.5L419.75 -23.5L419.75 -45.75L397.5 -45.75L397.5 -23.5L375.25 -23.5L375.25 -1.24998L353 -1.24999ZM353 21L353 -1.24999L330.75 -1.24996L330.75 -23.5L308.5 -23.5L308.5 -1.24996L286.25 -1.24999L286.25 -23.5L264 -23.5L264 -1.24999L241.75 -1.24999L241.75 -23.5L219.5 -23.5L219.5 -1.25L197.25 -1.25L197.25 -23.5L175 -23.5L175 -1.25L152.75 -1.25L152.75 -23.5L130.5 -23.5L130.5 -1.25L108.25 -1.25001L108.25 -23.5L86 -23.5L86 -1.25001L63.75 -1.24998L63.75 -23.5L41.5 -23.5L41.5 -1.24998L19.25 -1.25001L19.25 -23.5L-2.99999 -23.5L-2.99999 -1.25002L-25.25 -1.25002L-25.25 -23.5L-47.5 -23.5L-47.5 -1.25002L-69.75 -1.25002L-69.75 -23.5L-92 -23.5L-92 -1.25002L-114.25 -1.25003L-114.25 -23.5L-136.5 -23.5L-136.5 -1.25003L-114.25 -1.25003L-114.25 21L-136.5 21L-136.5 43.2499L-114.25 43.2499L-114.25 65.4999L-92 65.4999L-92 43.2499L-69.75 43.2499L-69.75 65.4999L-47.5 65.4999L-47.5 43.2499L-25.25 43.25L-25.25 65.4999L-3 65.4999L-2.99999 43.25L19.25 43.25L19.25 65.4999L41.5 65.4999L41.5 43.25L63.75 43.25L63.7499 65.5L86 65.4999L86 43.25L108.25 43.25L108.25 65.5L130.5 65.5L130.5 43.25L152.75 43.25L152.75 65.5L175 65.5L175 43.25L197.25 43.25L197.25 65.5L219.5 65.5L219.5 43.25L241.75 43.25L241.75 65.5L264 65.5L264 43.25L286.25 43.25L286.25 65.5L308.5 65.5L308.5 43.25L330.75 43.25L330.75 65.5L353 65.5L353 43.25L375.25 43.25L375.25 65.5L397.5 65.5L397.5 43.25L419.75 43.25L419.75 65.5L442 65.5L442 43.25L464.25 43.25L464.25 65.5L486.5 65.5L486.5 43.25L508.75 43.25L508.75 65.5L531 65.5L531 43.25L553.25 43.25L553.25 65.5L575.5 65.5L575.5 43.25L553.25 43.25L553.25 21L575.5 21L575.5 -1.24994L553.25 -1.24997L553.25 -23.5L531 -23.5L531 -1.24997L508.75 -1.24997L508.75 -23.5L486.5 -23.5L486.5 -1.24997L464.25 -1.24998L464.25 -23.5L442 -23.5L442 -1.24998L419.75 -1.24998L419.75 -23.5L397.5 -23.5L397.5 -1.24998L375.25 -1.24998L375.25 21L353 21ZM330.75 21L330.75 43.25L353 43.25L353 21L330.75 21ZM308.5 21L308.5 -1.24996L330.75 -1.24996L330.75 21L308.5 21ZM286.25 21L286.25 -1.24999L264 -1.24999L264 21L241.75 21L241.75 -1.24999L219.5 -1.25L219.5 21L197.25 21L197.25 -1.25L175 -1.25L175 21L152.75 21L152.75 -1.25L130.5 -1.25L130.5 21L108.25 21L108.25 -1.25001L86 -1.25001L86 21L63.75 21L63.75 -1.24998L41.5 -1.24998L41.5 21L19.25 21L19.25 -1.25001L-2.99999 -1.25002L-2.99999 21L-25.25 21L-25.25 -1.25002L-47.5 -1.25002L-47.5 21L-69.75 21L-69.75 -1.25002L-92 -1.25002L-92 21L-114.25 21L-114.25 43.2499L-92 43.2499L-92 21L-69.75 21L-69.75 43.2499L-47.5 43.2499L-47.5 21L-25.25 21L-25.25 43.25L-2.99999 43.25L-2.99999 21L19.25 21L19.25 43.25L41.5 43.25L41.5 21L63.75 21L63.75 43.25L86 43.25L86 21L108.25 21L108.25 43.25L130.5 43.25L130.5 21L152.75 21L152.75 43.25L175 43.25L175 21L197.25 21L197.25 43.25L219.5 43.25L219.5 21L241.75 21L241.75 43.25L264 43.25L264 21L286.25 21ZM286.25 21L286.25 43.25L308.5 43.25L308.5 21L286.25 21ZM397.5 21L397.5 -1.24998L419.75 -1.24998L419.75 21L397.5 21ZM442 21L442 43.25L419.75 43.25L419.75 21L442 21ZM464.25 21L464.25 43.25L486.5 43.25L486.5 21L508.75 21L508.75 43.25L531 43.25L531 21L553.25 21L553.25 -1.24997L531 -1.24997L531 21L508.75 21L508.75 -1.24997L486.5 -1.24997L486.5 21L464.25 21ZM464.25 21L464.25 -1.24998L442 -1.24998L442 21L464.25 21ZM397.5 21L397.5 43.25L375.25 43.25L375.25 21L397.5 21Z" fill="url(#paint0_linear_592_7179)"/>
    </g>
    <defs>
        <linearGradient id="paint0_linear_592_7179" x1="-102.71" y1="-59.4976" x2="-7.25587" y2="113.14" gradientUnits="userSpaceOnUse">
            <stop stop-color="#D0D2D9"/>
            <stop offset="1" stop-color="#D0D2D9" stop-opacity="0"/>
        </linearGradient>
        <clipPath id="clip0_592_7179">
            <rect width="238" height="110" fill="white"/>
        </clipPath>
    </defs>
</svg>
