<svg width="12" height="13" viewBox="0 0 12 13" fill="none" xmlns="http://www.w3.org/2000/svg">
    <path d="M1.125 6.5C1.125 9.19227 3.30773 11.375 6 11.375C8.69227 11.375 10.875 9.19227 10.875 6.5C10.875 3.80773 8.69227 1.625 6 1.625C3.30773 1.625 1.125 3.80773 1.125 6.5ZM7.15711 6.5L5.17242 4.51508C5.10506 4.44418 5.06807 4.34977 5.06932 4.25199C5.07057 4.1542 5.10997 4.06077 5.17912 3.99162C5.24827 3.92247 5.3417 3.88307 5.43949 3.88182C5.53727 3.88057 5.63168 3.91756 5.70258 3.98492L7.95258 6.23492C8.02285 6.30524 8.06233 6.40059 8.06233 6.5C8.06233 6.59941 8.02285 6.69476 7.95258 6.76508L5.70258 9.01508C5.63168 9.08244 5.53727 9.11943 5.43949 9.11818C5.3417 9.11693 5.24827 9.07753 5.17912 9.00838C5.10997 8.93923 5.07057 8.8458 5.06932 8.74801C5.06807 8.65023 5.10506 8.55582 5.17242 8.48492L7.15711 6.5Z" fill="#757385"/>
</svg>
