<svg width="44" height="44" viewBox="0 0 44 44" fill="none" xmlns="http://www.w3.org/2000/svg">
    <ellipse rx="3.04423" ry="4.2999" transform="matrix(0.990559 0.137088 -0.152113 0.988363 24.4625 17.2814)" fill="#292939"/>
    <ellipse rx="2.03963" ry="3.08035" transform="matrix(0.611045 -0.791596 0.821492 0.57022 3.77679 28.9466)" fill="#292939"/>
    <ellipse rx="3.32511" ry="4.7361" transform="matrix(0.953723 0.300686 -0.330861 0.943679 31.7983 14.0541)" fill="#292939"/>
    <ellipse rx="2.25757" ry="3.34723" transform="matrix(0.740903 -0.671612 0.70994 0.704262 4.07144 23.6438)" fill="#292939"/>
    <ellipse rx="3.27141" ry="4.81799" transform="matrix(0.78182 0.623505 -0.663522 0.748157 38.1916 17.7371)" fill="#292939"/>
    <ellipse rx="2.29746" ry="3.28674" transform="matrix(0.933596 -0.358328 0.392564 0.919725 8.51938 21.1274)" fill="#292939"/>
    <ellipse rx="2.76096" ry="4.0962" transform="matrix(0.736861 0.676044 -0.714169 0.699973 39.0405 25.3422)" fill="#292939"/>
    <ellipse rx="1.95052" ry="2.77716" transform="matrix(0.955441 -0.295183 0.32493 0.945738 13.7018 23.0986)" fill="#292939"/>
    <path d="M33.0624 33.2846C36.5436 32.2015 34.9631 23.396 31.626 21.9161C27.1122 19.6305 19.4599 24.7091 20.6313 27.7717C21.8028 30.8344 24.8477 29.6416 26.9757 30.5853C29.1037 31.529 29.5811 34.3677 33.0624 33.2846Z" fill="#292939"/>
    <path d="M16.8899 29.1415C17.3189 26.7705 11.1247 24.8347 9.08852 26.2916C6.15119 28.1702 6.94903 34.256 9.30487 34.5686C11.6607 34.8811 11.8776 32.7278 13.176 31.7988C14.4745 30.8697 16.4609 31.5125 16.8899 29.1415Z" fill="#292939"/>
</svg>
