<svg width="12" height="12" viewBox="0 0 12 12" fill="none" xmlns="http://www.w3.org/2000/svg">
    <path d="M9.74278 10.0109C9.53794 8.20876 8.71552 7.4618 8.11481 6.91712C7.6995 6.53907 7.49981 6.34243 7.49981 6.00001C7.49981 5.66227 7.6988 5.46938 8.11294 5.09907C8.72067 4.55602 9.55294 3.81212 9.74325 1.98563C9.75847 1.83218 9.74129 1.67725 9.69285 1.53085C9.6444 1.38446 9.56575 1.24987 9.462 1.13579C9.3512 1.01394 9.2161 0.916655 9.06541 0.850209C8.91472 0.783764 8.75177 0.749629 8.58708 0.750006H3.41255C3.24763 0.749491 3.08443 0.783556 2.93349 0.850004C2.78255 0.916453 2.64722 1.01381 2.53622 1.13579C2.43278 1.25002 2.35443 1.38467 2.30623 1.53105C2.25803 1.67743 2.24105 1.83229 2.25638 1.98563C2.44599 3.80626 3.27521 4.54477 3.8806 5.08383C4.29872 5.45626 4.49981 5.65055 4.49981 6.00001C4.49981 6.35391 4.29825 6.55219 3.87872 6.93165C3.28106 7.47305 2.46075 8.21438 2.25685 10.0109C2.24029 10.1636 2.25616 10.3181 2.30341 10.4643C2.35066 10.6106 2.42824 10.7451 2.53107 10.8593C2.64229 10.9827 2.77828 11.0813 2.93017 11.1486C3.08205 11.2159 3.24642 11.2505 3.41255 11.25H8.58708C8.75321 11.2505 8.91758 11.2159 9.06946 11.1486C9.22135 11.0813 9.35734 10.9827 9.46856 10.8593C9.57139 10.7451 9.64897 10.6106 9.69622 10.4643C9.74347 10.3181 9.75934 10.1636 9.74278 10.0109ZM8.04591 10.125H3.9638C3.59817 10.125 3.49505 9.70313 3.75146 9.44157C4.37208 8.81251 5.62481 8.36204 5.62481 7.64063V5.25001C5.62481 4.78477 4.73419 4.42969 4.18317 3.67501C4.09224 3.55055 4.10138 3.37501 4.33247 3.37501H7.67771C7.87481 3.37501 7.91724 3.54915 7.82771 3.67383C7.28466 4.42969 6.37481 4.78243 6.37481 5.25001V7.64063C6.37481 8.35618 7.68052 8.74219 8.25919 9.44227C8.49239 9.72446 8.41083 10.125 8.04591 10.125Z" fill="#9B99B1"/>
</svg>
